<svg width="25" height="25" viewBox="0 0 29 29" fill="none" xmlns="http://www.w3.org/2000/svg">
<path d="M10.2707 22.9583H9.6665C4.83317 22.9583 2.4165 21.75 2.4165 15.7083V9.66666C2.4165 4.83332 4.83317 2.41666 9.6665 2.41666H19.3332C24.1665 2.41666 26.5832 4.83332 26.5832 9.66666V15.7083C26.5832 20.5417 24.1665 22.9583 19.3332 22.9583H18.729C18.3544 22.9583 17.9919 23.1396 17.7623 23.4417L15.9498 25.8583C15.1523 26.9217 13.8473 26.9217 13.0498 25.8583L11.2373 23.4417C11.044 23.1758 10.5969 22.9583 10.2707 22.9583Z" stroke="#4E7140" stroke-width="2" stroke-miterlimit="10" stroke-linecap="round" stroke-linejoin="round"/>
<path d="M19.329 13.2917H19.3398" stroke="#4E7140" stroke-width="3" stroke-linecap="round" stroke-linejoin="round"/>
<path d="M14.4945 13.2917H14.5054" stroke="#4E7140" stroke-width="3" stroke-linecap="round" stroke-linejoin="round"/>
<path d="M9.66003 13.2917H9.67088" stroke="#4E7140" stroke-width="3" stroke-linecap="round" stroke-linejoin="round"/>
</svg>
