<svg width="36" height="33" viewBox="0 0 36 33" fill="none" xmlns="http://www.w3.org/2000/svg">
<path d="M17.8807 20.1379C20.2475 20.1379 22.1661 18.3527 22.1661 16.1506C22.1661 13.9485 20.2475 12.1633 17.8807 12.1633C15.5139 12.1633 13.5953 13.9485 13.5953 16.1506C13.5953 18.3527 15.5139 20.1379 17.8807 20.1379Z" stroke="#4E7140" stroke-width="2" stroke-miterlimit="10" stroke-linecap="round" stroke-linejoin="round"/>
<path d="M3.59604 17.3202V14.981C3.59604 13.5987 4.81023 12.4557 6.31012 12.4557C8.89564 12.4557 9.95271 10.7545 8.65281 8.66783C7.91 7.47165 8.35283 5.91662 9.65273 5.2255L12.124 3.9097C13.2525 3.28503 14.7095 3.65717 15.3809 4.70715L15.538 4.95968C16.8236 7.04635 18.9378 7.04635 20.2377 4.95968L20.3948 4.70715C21.0662 3.65717 22.5232 3.28503 23.6517 3.9097L26.1229 5.2255C27.4228 5.91662 27.8657 7.47165 27.1229 8.66783C25.823 10.7545 26.88 12.4557 29.4655 12.4557C30.9511 12.4557 32.1796 13.5855 32.1796 14.981V17.3202C32.1796 18.7024 30.9654 19.8455 29.4655 19.8455C26.88 19.8455 25.823 21.5467 27.1229 23.6334C27.8657 24.8428 27.4228 26.3846 26.1229 27.0757L23.6517 28.3915C22.5232 29.0162 21.0662 28.644 20.3948 27.594L20.2377 27.3415C18.952 25.2548 16.8379 25.2548 15.538 27.3415L15.3809 27.594C14.7095 28.644 13.2525 29.0162 12.124 28.3915L9.65273 27.0757C8.35283 26.3846 7.91 24.8295 8.65281 23.6334C9.95271 21.5467 8.89564 19.8455 6.31012 19.8455C4.81023 19.8455 3.59604 18.7024 3.59604 17.3202Z" stroke="#4E7140"  stroke-width="2" stroke-miterlimit="10" stroke-linecap="round" stroke-linejoin="round"/>
</svg>
