<svg width="35" height="32" viewBox="0 0 35 32" fill="none" xmlns="http://www.w3.org/2000/svg">
<path d="M13.2523 14.5234C13.1095 14.5101 12.9381 14.5101 12.7809 14.5234C9.3812 14.4171 6.6814 11.8254 6.6814 8.63555C6.6814 5.37929 9.50976 2.73441 13.0238 2.73441C16.5235 2.73441 19.3662 5.37929 19.3662 8.63555C19.3519 11.8254 16.6521 14.4171 13.2523 14.5234Z" stroke="#4E7140" stroke-width="2" stroke-linecap="round" stroke-linejoin="round"/>
<path d="M23.6087 5.39258C26.3799 5.39258 28.6083 7.47925 28.6083 10.0444C28.6083 12.5564 26.4656 14.6032 23.7944 14.6962C23.6801 14.6829 23.5516 14.6829 23.423 14.6962" stroke="#4E7140" stroke-width="2" stroke-linecap="round" stroke-linejoin="round"/>
<path d="M6.11003 19.4277C2.65314 21.5809 2.65314 25.0897 6.11003 27.2295C10.0383 29.675 16.4807 29.675 20.409 27.2295C23.8659 25.0764 23.8659 21.5676 20.409 19.4277C16.495 16.9955 10.0526 16.9955 6.11003 19.4277Z" stroke="#4E7140"  stroke-width="2" stroke-linecap="round" stroke-linejoin="round"/>
<path d="M26.3657 26.658C27.3942 26.4586 28.3655 26.0732 29.1655 25.5017C31.3939 23.9467 31.3939 21.3815 29.1655 19.8265C28.3798 19.2683 27.4227 18.8961 26.4085 18.6835" stroke="#4E7140" stroke-width="2" stroke-linecap="round" stroke-linejoin="round"/>
</svg>
