<svg width="35" height="32" viewBox="0 0 35 32" fill="none" xmlns="http://www.w3.org/2000/svg">
<path d="M9.99926 14.3299H7.14233C3.68544 14.3299 1.78558 12.5623 1.78558 9.34587V6.68769C1.78558 3.4713 3.68544 1.70361 7.14233 1.70361H9.99926C13.4561 1.70361 15.356 3.4713 15.356 6.68769V9.34587C15.356 12.5623 13.4561 14.3299 9.99926 14.3299ZM7.14233 3.69724C4.88535 3.69724 3.92828 4.58773 3.92828 6.68769V9.34587C3.92828 11.4458 4.88535 12.3363 7.14233 12.3363H9.99926C12.2562 12.3363 13.2133 11.4458 13.2133 9.34587V6.68769C13.2133 4.58773 12.2562 3.69724 9.99926 3.69724H7.14233Z" fill="#4E7140"/>
<path d="M27.1408 14.3299H24.2839C20.827 14.3299 18.9272 12.5623 18.9272 9.34587V6.68769C18.9272 3.4713 20.827 1.70361 24.2839 1.70361H27.1408C30.5977 1.70361 32.4976 3.4713 32.4976 6.68769V9.34587C32.4976 12.5623 30.5977 14.3299 27.1408 14.3299ZM24.2839 3.69724C22.0269 3.69724 21.0699 4.58773 21.0699 6.68769V9.34587C21.0699 11.4458 22.0269 12.3363 24.2839 12.3363H27.1408C29.3978 12.3363 30.3549 11.4458 30.3549 9.34587V6.68769C30.3549 4.58773 29.3978 3.69724 27.1408 3.69724H24.2839Z" fill="#4E7140"/>
<path d="M27.1408 30.279H24.2839C20.827 30.279 18.9272 28.5113 18.9272 25.2949V22.6367C18.9272 19.4203 20.827 17.6526 24.2839 17.6526H27.1408C30.5977 17.6526 32.4976 19.4203 32.4976 22.6367V25.2949C32.4976 28.5113 30.5977 30.279 27.1408 30.279ZM24.2839 19.6463C22.0269 19.6463 21.0699 20.5368 21.0699 22.6367V25.2949C21.0699 27.3949 22.0269 28.2853 24.2839 28.2853H27.1408C29.3978 28.2853 30.3549 27.3949 30.3549 25.2949V22.6367C30.3549 20.5368 29.3978 19.6463 27.1408 19.6463H24.2839Z" fill="#4E7140"/>
<path d="M9.99926 30.279H7.14233C3.68544 30.279 1.78558 28.5113 1.78558 25.2949V22.6367C1.78558 19.4203 3.68544 17.6526 7.14233 17.6526H9.99926C13.4561 17.6526 15.356 19.4203 15.356 22.6367V25.2949C15.356 28.5113 13.4561 30.279 9.99926 30.279ZM7.14233 19.6463C4.88535 19.6463 3.92828 20.5368 3.92828 22.6367V25.2949C3.92828 27.3949 4.88535 28.2853 7.14233 28.2853H9.99926C12.2562 28.2853 13.2133 27.3949 13.2133 25.2949V22.6367C13.2133 20.5368 12.2562 19.6463 9.99926 19.6463H7.14233Z" fill="#4E7140"/>
</svg>
