<svg width="35" height="33" viewBox="0 0 35 33" fill="none" xmlns="http://www.w3.org/2000/svg">
<path d="M12.142 25.5092H11.4277C5.71386 25.5092 2.85693 24.1801 2.85693 17.5346V10.8892C2.85693 5.57285 5.71386 2.91467 11.4277 2.91467H22.8554C28.5693 2.91467 31.4262 5.57285 31.4262 10.8892V17.5346C31.4262 22.851 28.5693 25.5092 22.8554 25.5092H22.1412C21.6984 25.5092 21.2699 25.7085 20.9984 26.0408L18.8557 28.699C17.913 29.8686 16.3702 29.8686 15.4274 28.699L13.2847 26.0408C13.0562 25.7484 12.5276 25.5092 12.142 25.5092Z" stroke="#4E7140" stroke-width="2" stroke-miterlimit="10" stroke-linecap="round" stroke-linejoin="round"/>
<path d="M22.8504 14.8765H22.8632" stroke="#4E7140"   stroke-width="3" stroke-linecap="round" stroke-linejoin="round"/>
<path d="M17.1351 14.8765H17.148" stroke="#4E7140"   stroke-width="3" stroke-linecap="round" stroke-linejoin="round"/>
<path d="M11.4199 14.8765H11.4327" stroke="#4E7140"   stroke-width="3" stroke-linecap="round" stroke-linejoin="round"/>
</svg>
