<svg width="24" height="25" viewBox="0 0 24 25" fill="none" xmlns="http://www.w3.org/2000/svg">
<path fill-rule="evenodd" clip-rule="evenodd" d="M16.9766 0C17.4861 0 17.8996 0.390696 17.8996 0.872089L17.9002 1.85791C19.6972 1.97431 21.1897 2.55586 22.2461 3.55591C23.3993 4.65009 24.0061 6.22334 24 8.11054V18.7186C24 22.593 21.3956 25 17.2049 25H6.79505C2.6043 25 0 22.5593 0 18.6303V8.10822C0 4.45381 2.32252 2.10806 6.11036 1.85831L6.11111 0.872089C6.11111 0.390696 6.52465 0 7.03419 0C7.54372 0 7.95726 0.390696 7.95726 0.872089L7.95689 1.83604H16.0529L16.0535 0.872089C16.0535 0.390696 16.467 0 16.9766 0ZM22.1538 10.3534H1.84615V18.6303C1.84615 21.614 3.60368 23.2558 6.79505 23.2558H17.2049C20.3962 23.2558 22.1538 21.6442 22.1538 18.7186L22.1538 10.3534ZM17.4783 17.67C17.9879 17.67 18.4014 18.0607 18.4014 18.5421C18.4014 19.0235 17.9879 19.4142 17.4783 19.4142C16.9688 19.4142 16.5503 19.0235 16.5503 18.5421C16.5503 18.0607 16.9577 17.67 17.4673 17.67H17.4783ZM12.0168 17.67C12.5264 17.67 12.9399 18.0607 12.9399 18.5421C12.9399 19.0235 12.5264 19.4142 12.0168 19.4142C11.5073 19.4142 11.0888 19.0235 11.0888 18.5421C11.0888 18.0607 11.4962 17.67 12.0057 17.67H12.0168ZM6.54385 17.67C7.05339 17.67 7.46693 18.0607 7.46693 18.5421C7.46693 19.0235 7.05339 19.4142 6.54385 19.4142C6.03431 19.4142 5.61462 19.0235 5.61462 18.5421C5.61462 18.0607 6.02324 17.67 6.53277 17.67H6.54385ZM17.4783 13.1506C17.9879 13.1506 18.4014 13.5413 18.4014 14.0227C18.4014 14.5041 17.9879 14.8948 17.4783 14.8948C16.9688 14.8948 16.5503 14.5041 16.5503 14.0227C16.5503 13.5413 16.9577 13.1506 17.4673 13.1506H17.4783ZM12.0168 13.1506C12.5264 13.1506 12.9399 13.5413 12.9399 14.0227C12.9399 14.5041 12.5264 14.8948 12.0168 14.8948C11.5073 14.8948 11.0888 14.5041 11.0888 14.0227C11.0888 13.5413 11.4962 13.1506 12.0057 13.1506H12.0168ZM6.54385 13.1506C7.05339 13.1506 7.46693 13.5413 7.46693 14.0227C7.46693 14.5041 7.05339 14.8948 6.54385 14.8948C6.03431 14.8948 5.61462 14.5041 5.61462 14.0227C5.61462 13.5413 6.02324 13.1506 6.53277 13.1506H6.54385ZM16.0529 3.58022H7.95689L7.95726 4.69882C7.95726 5.18021 7.54372 5.5709 7.03419 5.5709C6.52465 5.5709 6.11111 5.18021 6.11111 4.69882L6.11046 3.60661C3.35326 3.82544 1.84615 5.40446 1.84615 8.10822V8.60926H22.1538L22.1538 8.10822C22.1587 6.67218 21.7501 5.5559 20.939 4.78847C20.227 4.11383 19.1862 3.71091 17.9007 3.60717L17.8996 4.69882C17.8996 5.18021 17.4861 5.5709 16.9766 5.5709C16.467 5.5709 16.0535 5.18021 16.0535 4.69882L16.0529 3.58022Z" fill="#5C7B51"/>
</svg>
