<svg width="23" height="25" viewBox="0 0 23 25" fill="none" xmlns="http://www.w3.org/2000/svg">
<path d="M13.4462 22.625C13.2485 22.966 12.9646 23.249 12.623 23.4457C12.2814 23.6425 11.8942 23.746 11.5 23.746C11.1058 23.746 10.7186 23.6425 10.377 23.4457C10.0354 23.249 9.75154 22.966 9.55375 22.625M18.25 8C18.25 6.20979 17.5388 4.4929 16.273 3.22703C15.0071 1.96116 13.2902 1.25 11.5 1.25C9.70979 1.25 7.9929 1.96116 6.72703 3.22703C5.46116 4.4929 4.75 6.20979 4.75 8C4.75 15.875 1.375 18.125 1.375 18.125H21.625C21.625 18.125 18.25 15.875 18.25 8Z" stroke="#4E7140" stroke-width="2" stroke-linecap="round" stroke-linejoin="round"/>
</svg>
