<svg width="32" height="32" viewBox="0 0 30 30" fill="none" xmlns="http://www.w3.org/2000/svg">
<path d="M11.25 27.5H18.75C25 27.5 27.5 25 27.5 18.75V11.25C27.5 5 25 2.5 18.75 2.5H11.25C5 2.5 2.5 5 2.5 11.25V18.75C2.5 25 5 27.5 11.25 27.5Z" fill="#4E7140" fill-opacity="0.2"/>
<path d="M16.9934 19.3166H18.0001C20.3829 19.3166 22.3167 17.3828 22.3167 15C22.3167 12.6171 20.3829 10.6833 18.0001 10.6833H17.0001C16.6359 10.6833 16.3501 10.9784 16.3501 11.3333C16.3501 11.6895 16.6439 11.9833 17.0001 11.9833H18.0001C19.6639 11.9833 21.0167 13.3362 21.0167 15C21.0167 16.6638 19.6639 18.0166 18.0001 18.0166H16.9934C16.6372 18.0166 16.3434 18.3105 16.3434 18.6666C16.3434 19.0228 16.6372 19.3166 16.9934 19.3166Z" fill="#4E7140" stroke="#4E7140" stroke-width="0.3"/>
<path d="M11.9999 19.3166H12.9999C13.3561 19.3166 13.6499 19.0228 13.6499 18.6666C13.6499 18.3105 13.3561 18.0166 12.9999 18.0166H11.9999C10.3361 18.0166 8.98325 16.6638 8.98325 15C8.98325 13.3362 10.3361 11.9833 11.9999 11.9833H12.9999C13.3561 11.9833 13.6499 11.6895 13.6499 11.3333C13.6499 10.9771 13.3561 10.6833 12.9999 10.6833H11.9999C9.61708 10.6833 7.68325 12.6171 7.68325 15C7.68325 17.3828 9.61708 19.3166 11.9999 19.3166Z" fill="#4E7140" stroke="#4E7140" stroke-width="0.3"/>
<path d="M12.3333 15.65H17.6666C18.0228 15.65 18.3166 15.3562 18.3166 15C18.3166 14.6438 18.0228 14.35 17.6666 14.35H12.3333C11.9771 14.35 11.6833 14.6438 11.6833 15C11.6833 15.3562 11.9771 15.65 12.3333 15.65Z" fill="#4E7140" stroke="#4E7140" stroke-width="0.3"/>
</svg>
