<svg width="18" height="12" viewBox="0 0 20 14" fill="none" xmlns="http://www.w3.org/2000/svg">
<path d="M5.26135 9.58268C4.82744 9.15103 4.12391 9.15103 3.69 9.58268C3.25609 10.0143 3.16692 10.314 3.60083 10.7456L5.26135 9.58268ZM4.95137 10.6061L3.60083 9.21055L2.57202 8.18716C1.02881 5.11697 4.71881 15.6285 5.26135 9.99979L4.95137 10.6061ZM5.4658 10.6061C5.89973 10.1745 5.29366 9.59752 4.85974 9.1659C4.42581 8.73427 4.32847 8.61137 3.89454 9.043C3.89454 9.043 4.85219 9.99566 5.4658 10.6061ZM1.89679 6.21852C1.46287 5.78688 0.759346 6.08086 0.325434 6.5125C-0.108478 6.94415 -0.108478 7.34987 0.325434 7.78151L1.89679 6.21852ZM7.03704 12.8948L6.25141 13.6763C6.68534 14.1079 7.38875 14.1079 7.82267 13.6763L7.03704 12.8948ZM19.6746 1.8868C20.1085 1.45517 20.1085 0.75535 19.6746 0.323721C19.2406 -0.107907 18.5372 -0.107907 18.1033 0.323721L19.6746 1.8868ZM3.60083 10.7456L2.57202 8.18716L4.46513 10.0944L5.26135 9.58268L3.60083 10.7456ZM5.26135 9.99979C5.26135 9.99979 3.94348 11.1888 4.11524 11.2573C4.19466 11.289 4.00234 12.0618 5.4658 10.6061C4.85219 9.99566 3.89454 9.043 3.89454 9.043L2.89378 10.0944L4.95137 10.6061L5.26135 9.99979ZM0.325434 7.78151L6.25141 13.6763L7.82267 12.1133L1.89679 6.21852L0.325434 7.78151ZM7.82267 13.6763L19.6746 1.8868L18.1033 0.323721L6.25141 12.1133L7.82267 13.6763Z" fill="#5C7B51"/>
</svg>
